<?xml version="1.0" standalone="no"?>
<!DOCTYPE svg PUBLIC "-//W3C//DTD SVG 20010904//EN"
 "http://www.w3.org/TR/2001/REC-SVG-20010904/DTD/svg10.dtd">
<svg version="1.0" xmlns="http://www.w3.org/2000/svg"
 width="626.000000pt" height="352.000000pt" viewBox="0 0 626.000000 352.000000"
 preserveAspectRatio="xMidYMid meet">

<g transform="translate(0.000000,352.000000) scale(0.100000,-0.100000)"
fill="#000000" stroke="none">
<path d="M0 2794 c0 -559 2 -623 16 -628 12 -5 15 -2 10 10 -5 13 -3 14 6 6 7
-6 16 -10 21 -9 4 1 15 -11 26 -28 26 -44 12 -81 -32 -80 -27 0 -33 4 -38 30
-4 17 -7 -448 -8 -1032 l-1 -1063 3130 0 3130 0 0 1709 0 1710 -228 -6 c-245
-6 -5694 -7 -5905 -1 l-127 4 0 -622z m3000 474 c0 -11 -28 -10 -35 1 -3 6 4
9 15 8 11 -1 20 -5 20 -9z m-16 -46 c11 -38 37 -44 30 -7 -3 18 0 25 11 25 19
0 30 -26 19 -43 -5 -7 -1 -4 9 7 15 17 22 18 38 8 10 -7 24 -12 30 -12 6 0 17
-7 26 -15 11 -12 26 -14 57 -10 32 5 45 3 55 -9 8 -9 11 -16 8 -16 -3 0 5 -12
19 -27 14 -16 29 -28 33 -28 16 0 61 -45 71 -69 5 -15 20 -31 32 -36 18 -7 19
-9 6 -9 -10 -1 -18 -8 -18 -16 0 -8 -9 -24 -21 -36 -27 -27 -30 -72 -5 -77 10
-2 22 1 26 8 4 6 17 9 33 5 22 -6 25 -11 21 -38 -2 -18 -10 -37 -19 -43 -8 -6
-15 -23 -15 -37 0 -16 -6 -27 -17 -30 -15 -3 -14 -6 6 -14 21 -8 22 -10 7 -16
-10 -4 -22 -5 -27 -1 -5 3 -16 -2 -25 -10 -10 -10 -11 -16 -3 -16 7 0 9 -10 6
-30 -4 -17 -2 -30 3 -30 6 0 10 5 10 12 0 6 7 3 15 -8 10 -13 14 -15 15 -5 0
11 4 10 19 -3 11 -10 17 -25 14 -37 -6 -23 -6 -23 -43 -4 -31 16 -35 13 -30
-28 1 -16 33 -57 44 -57 3 0 7 8 9 18 3 9 5 0 6 -20 0 -22 6 -38 13 -38 6 0 9
-3 5 -6 -3 -4 9 -23 28 -43 30 -31 32 -37 17 -43 -9 -4 -11 -7 -4 -7 17 -1 70
-51 54 -51 -6 0 -12 -4 -12 -10 0 -5 7 -10 16 -10 9 0 22 -8 29 -17 11 -14 27
-17 101 -15 63 2 85 0 74 -7 -12 -9 -10 -11 11 -11 24 0 25 -2 21 -51 -2 -30
1 -56 8 -64 7 -8 10 -21 7 -29 -3 -8 1 -20 8 -26 11 -9 12 -17 4 -31 -11 -21
3 -59 22 -59 6 0 9 -14 6 -36 -5 -34 -4 -35 19 -30 21 6 24 3 24 -19 0 -25
-31 -65 -50 -65 -14 0 -12 -27 3 -33 6 -3 2 -6 -10 -6 -13 -1 -23 -7 -23 -15
0 -19 27 -46 48 -47 9 -1 -3 -7 -27 -15 -37 -11 -45 -11 -58 1 -8 9 -20 12
-26 8 -7 -4 -6 1 2 10 7 10 9 17 3 17 -6 0 -9 7 -8 15 3 19 41 47 51 37 3 -4
5 0 3 8 -2 8 -7 18 -13 22 -6 5 -5 8 3 8 6 0 12 4 12 10 0 11 -50 64 -65 69
-5 2 -24 14 -41 27 -17 13 -36 24 -42 24 -7 0 -11 5 -9 11 2 13 -38 27 -65 23
-10 -1 -18 4 -18 12 0 8 -4 14 -10 14 -5 0 -10 -4 -10 -10 0 -5 -10 -10 -23
-10 -34 0 -38 -9 -21 -42 l16 -30 -46 4 c-25 2 -46 -1 -46 -6 0 -5 -3 -6 -7
-3 -7 8 -33 -11 -33 -25 0 -5 5 -6 10 -3 6 3 10 2 10 -4 0 -7 -17 -8 -47 -4
-31 4 -44 3 -40 -4 4 -6 16 -9 26 -6 10 3 21 0 25 -5 3 -5 -17 -9 -49 -8 -30
1 -63 -2 -72 -6 -14 -7 -13 -7 4 -4 13 2 26 0 29 -5 3 -5 -2 -9 -11 -9 -9 0
-23 -7 -31 -15 -14 -13 -13 -15 11 -15 14 0 24 -4 21 -9 -4 -5 -3 -11 1 -14 5
-2 3 -2 -4 -1 -7 2 -15 -1 -18 -6 -4 -6 -21 -10 -38 -11 l-32 -1 30 -9 c17 -5
37 -6 47 -3 9 2 19 0 23 -6 4 -6 -6 -10 -24 -10 -17 0 -31 -4 -31 -9 0 -5 -10
-12 -22 -15 -22 -7 -22 -7 -3 -16 14 -6 15 -9 5 -10 -11 0 -10 -4 5 -16 14
-11 15 -15 5 -14 -26 4 -44 0 -36 -7 4 -4 -10 -13 -31 -20 -21 -7 -28 -11 -17
-9 12 2 28 0 35 -5 10 -6 7 -9 -11 -9 -27 0 -17 -15 15 -23 11 -3 -6 -5 -37
-6 -31 0 -60 4 -63 9 -3 6 -11 10 -16 10 -6 0 -7 -4 -4 -10 3 -5 -1 -10 -10
-10 -9 0 -13 5 -10 10 3 6 -2 11 -12 11 -17 1 -17 2 0 6 25 7 57 35 51 45 -3
4 -14 8 -24 8 -10 0 -22 5 -25 10 -4 7 9 9 37 6 35 -4 38 -4 13 3 -16 5 -55
10 -85 11 l-55 3 49 6 c50 6 79 32 34 30 -22 0 -22 -1 -3 -9 17 -8 16 -9 -9
-9 -20 -1 -27 3 -23 13 4 9 -1 17 -11 19 -10 3 -7 5 8 5 31 0 71 9 79 18 3 4
-9 4 -27 0 -19 -3 -45 -3 -58 0 -22 6 -22 7 -7 22 11 12 18 13 20 5 3 -7 11
-9 19 -6 19 7 8 23 -17 23 -11 0 -18 4 -15 9 3 5 -6 12 -22 16 -32 8 -153 15
-134 8 27 -10 10 -22 -32 -21 -33 0 -43 4 -39 14 3 9 -2 14 -17 14 -11 0 -18
-4 -15 -10 4 -6 -9 -10 -32 -10 l-38 1 39 19 c22 11 46 20 53 20 8 0 11 5 8
10 -4 7 3 9 22 5 24 -4 23 -3 -7 9 l-35 14 53 -5 c42 -5 52 -3 50 8 -2 8 -7
17 -13 21 -5 4 -10 13 -10 20 0 12 -5 14 -47 17 -29 2 -21 27 20 64 7 7 21 20
30 31 9 10 25 26 35 36 14 13 19 36 21 87 4 103 2 106 -64 82 -30 -10 -56 -19
-57 -19 -2 0 -3 21 -3 46 0 38 3 45 18 40 49 -14 70 -16 92 -8 22 9 23 11 8
17 -23 9 -23 25 -1 25 14 0 12 5 -9 25 -15 14 -34 25 -43 25 -12 0 -15 11 -13
56 1 30 6 58 10 60 3 2 5 25 2 50 -3 32 1 50 11 60 18 19 20 64 3 64 -7 1 1 8
17 17 36 19 45 31 38 50 -4 10 -9 11 -16 4 -16 -16 -37 -13 -37 4 0 17 67 48
87 40 8 -2 16 2 20 11 4 11 8 12 13 4 10 -16 50 18 50 42 0 18 -9 22 -42 19
-26 -3 -22 16 5 25 12 5 25 7 30 6 4 -1 7 8 7 20 0 28 -28 58 -53 58 -19 0
-19 0 -3 55 14 48 46 61 67 26 11 -17 15 -15 55 28 36 39 40 47 26 53 -27 11
-74 9 -67 -2 3 -6 -1 -13 -9 -16 -9 -3 -14 -10 -11 -14 2 -4 -7 -7 -20 -7 -17
0 -23 3 -17 11 4 6 7 23 6 39 0 15 4 27 11 27 6 0 12 7 12 15 0 16 -24 28 -38
19 -13 -8 -11 5 4 21 17 20 30 13 41 -23z m431 -20 c-3 -3 -11 0 -18 7 -9 10
-8 11 6 5 10 -3 15 -9 12 -12z m-1525 2 c0 -8 -32 -33 -42 -34 -4 0 -6 9 -5
20 1 14 8 20 24 20 13 0 23 -3 23 -6z m1660 -18 c0 -2 -9 -6 -20 -9 -11 -3
-20 -1 -20 4 0 5 9 9 20 9 11 0 20 -2 20 -4z m15 -31 c-37 -12 -36 -15 5 -19
8 0 30 5 49 12 36 14 96 8 71 -8 -7 -4 -19 -6 -26 -3 -7 2 -31 -9 -55 -26 -23
-17 -47 -31 -53 -31 -6 0 4 10 22 21 39 25 41 32 5 18 -22 -8 -30 -6 -47 11
-18 18 -19 22 -6 30 8 5 29 9 45 9 29 -1 28 -1 -10 -14z m212 -10 c9 -24 -4
-30 -34 -15 -26 12 -27 13 -8 21 29 11 35 11 42 -6z m-2092 -25 c3 -5 -3 -10
-15 -10 -12 0 -18 5 -15 10 3 6 10 10 15 10 5 0 12 -4 15 -10z m1719 -9 c3 -4
-6 -6 -19 -3 -14 2 -25 6 -25 8 0 8 39 4 44 -5z m-719 -30 c-2 -32 -55 -71
-55 -41 0 6 6 9 13 8 7 -2 13 9 15 25 4 30 29 38 27 8z m-109 -1 c15 -6 25
-13 22 -15 -3 -3 -20 1 -39 9 -38 17 -25 21 17 6z m-11 -21 c17 -7 34 -13 39
-13 10 -1 21 -26 12 -26 -10 0 -106 50 -106 55 0 5 8 2 55 -16z m1126 6 c-18
-8 -38 -15 -45 -15 -19 1 38 29 59 29 14 0 10 -4 -14 -14z m-147 -2 c-5 -5
-12 -12 -16 -18 -4 -6 -8 -2 -8 8 0 9 7 17 17 17 9 0 12 -3 7 -7z m258 -28
c-2 -5 -12 -9 -23 -7 -11 2 -27 -2 -35 -8 -9 -8 -14 -9 -14 -2 0 6 8 16 18 21
21 13 58 10 54 -4z m-82 -29 c0 -2 -7 -7 -16 -10 -8 -3 -12 -2 -9 4 6 10 25
14 25 6z m95 -6 c-3 -5 -21 -9 -38 -9 l-32 2 35 7 c19 4 36 8 38 9 2 0 0 -3
-3 -9z m130 -81 c-4 -5 -16 -9 -28 -9 -21 1 -21 1 -3 15 20 15 41 11 31 -6z
m-538 -21 c-3 -8 -6 -5 -6 6 -1 11 2 17 5 13 3 -3 4 -12 1 -19z m626 -3 c18
-12 16 -14 -24 -20 -24 -3 -61 -8 -82 -9 -20 -2 -46 -11 -57 -21 -11 -10 -20
-14 -20 -9 0 5 15 18 33 30 17 11 43 28 57 37 27 18 61 15 93 -8z m-353 8 c0
-5 -5 -15 -10 -23 -8 -12 -10 -11 -10 8 0 12 5 22 10 22 6 0 10 -3 10 -7z
m-780 -13 c0 -5 -7 -10 -16 -10 -8 0 -12 5 -9 10 3 6 10 10 16 10 5 0 9 -4 9
-10z m750 1 c0 -13 -26 -32 -33 -24 -8 7 11 33 24 33 5 0 9 -4 9 -9z m450 -44
c0 -2 -14 -14 -31 -26 -18 -13 -28 -18 -24 -11 6 9 -4 11 -46 5 -63 -8 -59 1
14 31 37 16 57 19 69 13 10 -5 18 -11 18 -12z m-1912 -31 c-16 -12 -16 -14 0
-30 16 -17 16 -18 -5 -7 -17 9 -29 9 -45 1 -13 -6 -5 5 17 24 22 19 42 32 45
30 3 -3 -3 -11 -12 -18z m-1365 4 c25 -2 21 -17 -7 -24 -13 -3 -47 3 -77 14
l-54 20 60 -5 c33 -2 68 -5 78 -5z m3307 -45 c-7 -8 -21 -15 -32 -15 -10 0
-21 -7 -24 -15 -5 -12 -9 -13 -21 -3 -11 9 -19 9 -32 1 -14 -9 -20 -7 -29 8
-11 18 -9 19 30 20 24 1 54 5 68 9 43 14 54 12 40 -5z m-290 -44 l25 -10 -30
0 c-17 -1 -40 -8 -52 -16 -22 -15 -53 -11 -53 7 0 6 6 8 14 5 17 -7 30 20 13
27 -7 2 4 3 23 1 19 -2 46 -8 60 -14z m-205 -22 c-5 -16 -9 -18 -15 -9 -4 7
-3 19 3 25 16 17 20 11 12 -16z m2119 16 c-7 -18 -20 -19 -30 -3 -4 7 -3 8 4
4 7 -4 12 -2 12 3 0 6 4 11 10 11 5 0 7 -7 4 -15z m-3625 -14 c23 -15 -3 -20
-29 -5 -22 12 -23 13 -5 13 11 1 26 -3 34 -8z m301 -31 c0 -5 -4 -10 -10 -10
-5 0 -10 5 -10 10 0 6 5 10 10 10 6 0 10 -4 10 -10z m30 0 c0 -5 -4 -10 -10
-10 -5 0 -10 5 -10 10 0 6 5 10 10 10 6 0 10 -4 10 -10z m1854 -16 c9 -3 16
-9 16 -13 0 -15 -83 -61 -110 -61 -19 0 -35 -9 -48 -25 -11 -14 -23 -25 -27
-25 -5 0 0 9 10 20 17 18 17 20 1 20 -15 0 -14 3 4 23 l21 22 -48 6 c-26 3
-39 7 -28 8 11 1 44 4 74 7 30 4 64 10 75 14 26 11 40 12 60 4z m-3479 -55
c-52 -11 -72 -8 -35 5 19 7 42 11 50 7 10 -4 5 -8 -15 -12z m475 0 c0 -6 -4
-7 -10 -4 -5 3 -10 11 -10 16 0 6 5 7 10 4 6 -3 10 -11 10 -16z m-431 -25 c2
-2 -7 -4 -22 -4 -14 0 -29 5 -32 10 -6 10 42 4 54 -6z m31 6 c0 -5 -2 -10 -4
-10 -3 0 -8 5 -11 10 -3 6 -1 10 4 10 6 0 11 -4 11 -10z m385 -10 c3 -6 -1 -7
-9 -4 -18 7 -21 14 -7 14 6 0 13 -4 16 -10z m727 -40 c33 -22 55 -40 49 -40
-11 0 -121 69 -121 76 0 10 17 1 72 -36z m2108 16 c0 -2 -7 -9 -15 -16 -12
-10 -15 -10 -15 4 0 9 7 16 15 16 8 0 15 -2 15 -4z m370 -30 c0 -2 -8 -10 -17
-17 -16 -13 -17 -12 -4 4 13 16 21 21 21 13z m-2322 -23 c-10 -2 -26 -2 -35 0
-10 3 -2 5 17 5 19 0 27 -2 18 -5z m82 -28 c0 -2 -13 1 -30 6 -16 6 -30 15
-30 20 0 5 14 3 30 -6 17 -9 30 -17 30 -20z m1318 1 c-2 -38 -18 -39 -18 -2 0
20 7 36 17 36 2 0 3 -15 1 -34z m735 27 c-7 -2 -21 -2 -30 0 -10 3 -4 5 12 5
17 0 24 -2 18 -5z m-716 -25 c-3 -8 -6 -5 -6 6 -1 11 2 17 5 13 3 -3 4 -12 1
-19z m-1800 5 c-4 -3 3 -18 15 -32 19 -22 17 -21 -12 4 -19 17 -37 31 -39 33
-2 1 6 2 19 2 13 0 20 -3 17 -7z m2223 -13 c8 -5 11 -10 5 -10 -5 0 -17 5 -25
10 -8 5 -10 10 -5 10 6 0 17 -5 25 -10z m-385 -49 c4 -21 2 -30 -5 -26 -5 3
-10 20 -10 37 0 39 7 33 15 -11z m580 9 c3 -5 -1 -10 -9 -10 -9 0 -16 5 -16
10 0 6 4 10 9 10 6 0 13 -4 16 -10z m-2155 -15 c0 -8 7 -15 15 -15 8 0 15 5
15 10 0 12 70 13 89 1 10 -6 5 -9 -15 -10 -16 -1 -60 -4 -99 -7 l-70 -6 19 21
c22 24 46 28 46 6z m544 0 c3 -8 1 -15 -4 -15 -6 0 -10 7 -10 15 0 8 2 15 4
15 2 0 6 -7 10 -15z m1176 5 c0 -5 -4 -10 -10 -10 -5 0 -10 5 -10 10 0 6 5 10
10 10 6 0 10 -4 10 -10z m-1549 -37 c13 -17 13 -17 -6 -3 -11 8 -22 16 -24 17
-2 2 0 3 6 3 6 0 17 -8 24 -17z m2588 0 c-21 -28 -23 -29 -16 -11 3 9 1 19 -6
22 -7 2 -1 5 12 5 21 1 22 -1 10 -16z m-819 -3 c0 -5 -4 -10 -10 -10 -5 0 -10
5 -10 10 0 6 5 10 10 10 6 0 10 -4 10 -10z m937 -6 c-3 -3 -12 -4 -19 -1 -8 3
-5 6 6 6 11 1 17 -2 13 -5z m-677 -8 c0 -2 -8 -10 -17 -17 -16 -13 -17 -12 -4
4 13 16 21 21 21 13z m275 -33 c25 -16 45 -31 45 -35 0 -5 -39 -7 -87 -6 l-88
2 75 6 c100 9 80 12 -57 10 l-113 -1 0 24 c0 25 1 25 90 26 80 1 94 -2 135
-26z m985 7 c0 -5 -7 -10 -16 -10 -8 0 -12 5 -9 10 3 6 10 10 16 10 5 0 9 -4
9 -10z m-1615 -9 c3 -5 2 -12 -3 -15 -5 -3 -9 1 -9 9 0 17 3 19 12 6z m-1210
-32 c4 -11 4 -36 0 -55 -4 -25 -11 -34 -26 -34 -11 0 -18 -4 -15 -8 2 -4 1
-14 -5 -22 -6 -10 -9 9 -9 57 0 70 5 80 37 82 6 1 15 -8 18 -20z m2325 11 c8
-5 11 -10 5 -10 -5 0 -17 5 -25 10 -8 5 -10 10 -5 10 6 0 17 -5 25 -10z
m-1063 -32 c-3 -8 -6 -5 -6 6 -1 11 2 17 5 13 3 -3 4 -12 1 -19z m57 13 c3 -5
-1 -15 -10 -22 -12 -10 -14 -23 -10 -51 4 -23 2 -38 -4 -38 -5 0 -10 17 -10
38 0 20 -3 47 -6 60 -5 17 -2 22 14 22 12 0 23 -4 26 -9z m676 -1 c0 -5 -4
-10 -10 -10 -5 0 -10 5 -10 10 0 6 5 10 10 10 6 0 10 -4 10 -10z m-573 -6 c-3
-3 -12 -4 -19 -1 -8 3 -5 6 6 6 11 1 17 -2 13 -5z m138 -14 c3 -5 1 -18 -5
-27 -9 -15 -10 -14 -4 6 4 16 2 22 -6 19 -6 -2 -11 -7 -10 -12 1 -5 -3 -12
-10 -16 -6 -4 -12 -13 -13 -21 -3 -18 -16 -39 -25 -39 -4 0 -7 10 -8 23 0 12
-4 30 -8 39 -6 13 -3 15 11 12 10 -3 27 2 38 10 24 18 32 19 40 6z m-205 -20
c0 -11 -4 -20 -9 -20 -7 0 -8 17 -2 38 4 10 11 -2 11 -18z m245 2 c-3 -3 -11
0 -18 7 -9 10 -8 11 6 5 10 -3 15 -9 12 -12z m-1679 -67 c-8 -8 -20 -15 -26
-15 -7 0 -8 -6 -1 -19 10 -18 6 -31 -11 -31 -8 0 -5 45 7 93 5 18 12 26 21 23
8 -3 13 -2 13 2 -1 4 0 12 1 17 2 6 5 -5 7 -23 3 -20 -1 -38 -11 -47z m1254
43 c0 -36 -11 -31 -15 7 -2 14 1 25 6 25 5 0 9 -14 9 -32z m66 -44 c-4 -13
-13 -24 -20 -24 -11 0 -12 8 -6 34 11 49 24 67 28 37 2 -12 1 -34 -2 -47z m33
-67 c-1 -105 -2 -118 -13 -94 -7 15 -16 24 -21 20 -6 -5 -2 2 9 14 16 19 17
32 11 109 -6 63 -5 85 4 80 7 -5 11 -48 10 -129z m518 127 c-3 -3 -12 -4 -19
-1 -8 3 -5 6 6 6 11 1 17 -2 13 -5z m1264 -42 c-13 -2 -27 0 -32 5 -6 6 3 7
23 4 28 -4 29 -6 9 -9z m-1747 -64 c-6 -10 -4 -10 7 0 7 6 19 12 27 12 11 0
12 -21 6 -117 -4 -68 -12 -121 -18 -125 -6 -4 -11 -12 -11 -18 0 -6 -6 -15
-14 -19 -8 -5 -12 -18 -8 -30 3 -12 1 -19 -3 -16 -5 3 -11 -1 -14 -7 -3 -7 -3
1 0 17 3 17 8 94 11 173 3 78 10 142 15 142 5 0 6 -6 2 -12z m229 -3 c-3 -9
-8 -14 -10 -11 -3 3 -2 9 2 15 9 16 15 13 8 -4z m867 -10 c-7 -9 -15 -13 -17
-11 -7 7 7 26 19 26 6 0 6 -6 -2 -15z m-3880 -10 c-14 -8 -32 -14 -40 -14 -9
0 -4 6 10 14 14 8 32 14 40 14 9 0 4 -6 -10 -14z m4057 -26 c26 -1 30 -3 14
-6 -32 -6 -91 5 -91 18 0 6 7 6 19 -1 11 -5 37 -11 58 -11z m-5122 1 c3 -6 -1
-7 -9 -4 -18 7 -21 14 -7 14 6 0 13 -4 16 -10z m4125 -26 c0 -21 -4 -33 -10
-29 -5 3 -10 19 -10 36 0 16 5 29 10 29 6 0 10 -16 10 -36z m47 -6 c-2 -21
-10 -34 -20 -36 -12 -3 -15 4 -14 32 2 27 6 36 20 36 15 0 17 -6 14 -32z
m-3388 18 c-2 -2 -15 -9 -29 -15 -24 -11 -24 -11 -6 3 16 13 49 24 35 12z
m3951 -45 c92 -73 91 -71 33 -71 -43 0 -51 3 -56 21 -3 12 -10 18 -16 14 -6
-3 -11 -1 -11 4 0 6 -7 11 -15 11 -12 0 -14 7 -11 28 2 15 5 31 5 35 1 10 15
2 71 -42z m-4647 27 c-2 -5 10 -8 26 -8 l31 0 -20 -20 c-11 -11 -20 -27 -20
-35 0 -8 -4 -15 -10 -15 -5 0 -10 5 -10 10 0 6 -8 10 -17 10 -16 1 -16 2 1 11
17 11 17 13 -8 33 l-27 21 29 0 c17 0 28 -3 25 -7z m1152 2 c3 -5 1 -10 -4
-10 -6 0 -11 5 -11 10 0 6 2 10 4 10 3 0 8 -4 11 -10z m198 -26 c-4 -25 -2
-39 8 -45 11 -7 11 -9 -3 -9 -13 0 -18 8 -18 31 0 21 -4 28 -12 23 -7 -4 -4 2
6 14 11 12 20 22 22 22 1 0 0 -16 -3 -36z m3197 20 c0 -2 -9 -4 -21 -4 -11 0
-18 4 -14 10 5 8 35 3 35 -6z m-2135 -32 c-3 -3 -11 0 -18 7 -9 10 -8 11 6 5
10 -3 15 -9 12 -12z m2565 8 c0 -5 -5 -10 -11 -10 -5 0 -7 5 -4 10 3 6 8 10
11 10 2 0 4 -4 4 -10z m-4385 -10 c-3 -5 -12 -10 -18 -10 -7 0 -6 4 3 10 19
12 23 12 15 0z m715 7 c0 -2 -10 -12 -22 -23 l-23 -19 19 23 c18 21 26 27 26
19z m2580 -37 c0 -22 -47 -80 -64 -80 -7 0 -10 17 -8 44 3 36 8 46 25 49 42 8
47 7 47 -13z m50 6 c0 -7 10 -17 23 -21 l22 -7 -25 -7 c-14 -4 -30 -6 -37 -4
-12 5 -24 39 -15 47 11 11 32 6 32 -8z m190 -58 c0 -10 5 -18 10 -18 6 0 10
-9 10 -20 0 -11 4 -20 10 -20 5 0 1 -15 -10 -33 -12 -20 -16 -37 -11 -46 12
-18 1 -53 -14 -47 -15 5 -25 -32 -15 -59 6 -17 2 -53 -18 -167 -5 -26 -5 -45
0 -42 4 3 8 1 8 -5 0 -17 -83 -8 -102 12 -15 14 -15 17 -3 17 8 0 15 4 15 9 0
20 -13 41 -25 41 -8 0 -12 8 -10 20 2 11 -3 27 -12 36 -14 13 -14 20 -4 36 7
11 9 23 5 26 -4 4 -9 2 -11 -5 -2 -7 -11 -9 -19 -6 -11 4 -13 14 -8 36 8 36
12 60 13 69 1 4 8 5 18 1 12 -5 15 -2 12 13 -6 21 18 49 41 49 11 0 15 12 15
47 0 38 5 50 28 71 25 21 33 23 53 13 13 -6 24 -19 24 -28z m-765 22 c3 -5 1
-10 -4 -10 -6 0 -11 5 -11 10 0 6 2 10 4 10 3 0 8 -4 11 -10z m-3105 -11 c3
-1 9 -1 14 0 5 1 16 -1 25 -4 11 -5 5 -12 -24 -29 -22 -12 -43 -19 -46 -14 -3
4 -20 19 -38 32 l-32 24 48 -4 c26 -2 50 -4 53 -5z m183 -6 c-7 -2 -19 -2 -25
0 -7 3 -2 5 12 5 14 0 19 -2 13 -5z m2068 -21 c-13 -2 -27 0 -32 5 -6 6 3 7
23 4 28 -4 29 -6 9 -9z m1204 -14 c8 7 -1 -97 -8 -105 -7 -6 -37 9 -37 19 0 5
6 6 13 2 10 -6 10 -4 0 7 -16 16 -17 59 -2 59 7 0 9 9 6 23 -5 20 -5 20 7 5 7
-10 17 -14 21 -10z m-1165 -8 c11 -7 5 -8 -20 -4 -43 8 -51 14 -19 14 13 0 31
-5 39 -10z m1794 -42 c-3 -4 0 -7 6 -6 7 2 17 -6 23 -17 7 -11 17 -23 22 -27
6 -5 3 -8 -7 -8 -9 0 -23 8 -30 18 -7 10 -21 21 -30 25 -12 4 -17 15 -16 31 2
23 4 24 20 9 10 -8 15 -20 12 -25z m-2384 -22 c0 -3 -4 -8 -10 -11 -5 -3 -10
-1 -10 4 0 6 5 11 10 11 6 0 10 -2 10 -4z m1147 -12 c-3 -3 -12 -4 -19 -1 -8
3 -5 6 6 6 11 1 17 -2 13 -5z m-2524 -21 c-13 -2 -33 -2 -45 0 -13 2 -3 4 22
4 25 0 35 -2 23 -4z m321 -8 c18 -13 18 -14 -3 -12 -11 1 -23 7 -25 14 -7 17
4 16 28 -2z m1771 5 l-30 -8 35 -2 c28 -2 30 -4 10 -7 -14 -2 -34 -8 -45 -13
-28 -12 -125 -19 -125 -9 0 5 28 10 63 11 l62 2 -70 6 -70 6 70 3 c54 3 63 5
40 11 -23 5 -16 7 30 7 46 0 53 -2 30 -7z m382 4 c-3 -3 -12 -4 -19 -1 -8 3
-5 6 6 6 11 1 17 -2 13 -5z m-2297 -19 c-10 -12 9 -14 145 -14 86 -1 164 -5
173 -11 11 -6 -92 -10 -313 -10 -181 0 -325 -4 -318 -8 8 -5 -34 -36 -113 -86
-68 -42 -124 -78 -124 -79 0 -1 66 -1 147 -1 l148 2 -155 -12 c-139 -10 -159
-14 -190 -36 -19 -13 -29 -17 -23 -9 7 9 10 19 6 22 -3 4 1 7 10 7 10 0 17 4
17 9 0 5 34 31 75 56 72 45 94 64 58 50 -23 -8 -12 2 53 48 28 20 55 33 59 29
4 -4 5 2 1 13 -6 20 -2 20 158 17 137 -2 165 0 176 13 7 8 15 15 17 15 3 0 0
-7 -7 -15z m1678 -2 c-10 -2 -28 -2 -40 0 -13 2 -5 4 17 4 22 1 32 -1 23 -4z
m1847 -68 c1 -23 -3 -35 -12 -35 -7 0 -13 6 -13 14 0 7 -7 19 -15 26 -21 18
-19 28 8 32 29 5 31 3 32 -37z m-78 29 c-3 -3 -12 -4 -19 -1 -8 3 -5 6 6 6 11
1 17 -2 13 -5z m-2957 -7 c0 -2 -12 -14 -27 -28 l-28 -24 24 28 c23 25 31 32
31 24z m1143 -4 c-7 -2 -19 -2 -25 0 -7 3 -2 5 12 5 14 0 19 -2 13 -5z m221
-5 c-3 -4 -26 -8 -52 -7 -37 1 -41 3 -22 8 34 10 80 9 74 -1z m59 -5 c-7 -2
-19 -2 -25 0 -7 3 -2 5 12 5 14 0 19 -2 13 -5z m-94 -19 c2 -2 -29 -4 -70 -4
-41 0 -79 -4 -85 -10 -5 -5 -39 -10 -74 -11 -52 -1 -60 -4 -40 -11 14 -5 40
-6 58 -3 19 3 32 2 29 -2 -3 -5 10 -7 30 -5 25 3 34 1 29 -7 -4 -6 -35 -11
-74 -11 -37 0 -74 -5 -82 -11 -12 -8 -8 -9 14 -6 18 3 35 -1 43 -9 8 -8 10
-14 5 -14 -6 0 -19 -3 -29 -6 -14 -5 -15 -4 -4 4 10 7 -2 11 -43 13 -31 2 -56
1 -56 -3 0 -5 15 -8 33 -8 24 0 28 -3 17 -10 -12 -8 -12 -10 -1 -10 8 0 12 -2
9 -5 -2 -3 -19 0 -37 6 -21 8 -36 8 -42 2 -7 -7 1 -12 22 -17 18 -3 29 -9 26
-13 -4 -3 -26 2 -50 11 -31 11 -43 22 -43 36 0 16 7 20 31 20 24 0 27 2 15 11
-11 8 -7 9 18 6 18 -2 35 0 38 5 3 4 -7 8 -23 8 -18 0 -24 3 -15 8 7 5 10 15
7 23 -5 13 7 14 78 11 56 -3 87 0 91 7 5 8 -9 10 -51 6 -42 -3 -51 -2 -33 4
23 9 249 4 259 -5z m124 -11 c-13 -2 -35 -2 -50 0 -16 2 -5 4 22 4 28 0 40 -2
28 -4z m2978 -13 l24 -19 -47 -1 c-51 0 -51 0 -42 24 8 22 37 20 65 -4z
m-3206 0 c8 -13 -5 -13 -25 0 -13 8 -13 10 2 10 9 0 20 -4 23 -10z m42 4 c-3
-3 -12 -4 -19 -1 -8 3 -5 6 6 6 11 1 17 -2 13 -5z m1163 1 c0 -2 -15 -9 -32
-15 l-33 -10 36 3 c38 3 47 -15 18 -34 -10 -7 -8 -9 11 -7 14 2 23 5 21 8 -2
3 1 15 7 27 10 18 9 22 -6 26 -10 3 -6 5 11 6 21 1 27 -4 27 -19 0 -14 7 -20
21 -20 13 0 18 -4 13 -12 -6 -10 -4 -10 7 0 22 20 27 14 15 -23 -6 -19 -16
-35 -23 -35 -8 0 -11 -10 -7 -30 l6 -29 -33 11 c-19 6 -40 13 -48 15 -11 3
-11 6 -1 18 16 19 -1 20 -33 3 -30 -16 -51 -38 -37 -38 6 0 9 -4 5 -10 -3 -5
-13 -7 -23 -4 -9 2 -3 -3 13 -11 l30 -16 -30 7 c-41 9 -99 9 -165 1 -52 -6
-52 -6 -11 3 66 14 73 20 16 13 -67 -8 -52 5 24 20 59 12 61 13 45 32 -8 11
-13 14 -9 8 4 -8 0 -13 -9 -13 -30 0 -25 19 17 62 33 35 54 47 92 55 65 14 65
14 65 8z m-1062 -12 c-16 -2 -40 -2 -55 0 -16 2 -3 4 27 4 30 0 43 -2 28 -4z
m59 1 c-3 -3 -12 -4 -19 -1 -8 3 -5 6 6 6 11 1 17 -2 13 -5z m1548 -14 c3 -5
1 -10 -4 -10 -6 0 -11 5 -11 10 0 6 2 10 4 10 3 0 8 -4 11 -10z m-1645 -10
c19 -6 12 -8 -30 -8 -39 -1 -49 2 -35 8 24 10 33 10 65 0z m193 -9 c32 -16 35
-20 22 -31 -12 -10 -21 -10 -38 -2 -20 11 -19 11 8 6 27 -5 28 -4 10 7 -11 7
-36 13 -55 12 l-35 0 35 5 c30 3 32 5 15 12 -11 5 -15 9 -10 9 6 1 27 -7 48
-18z m1377 -14 c0 -13 -7 -32 -15 -43 -16 -21 -18 -12 -9 35 8 36 24 42 24 8z
m1620 11 c0 -10 -400 -8 -530 1 -60 5 19 7 217 7 172 -1 313 -4 313 -8z
m-1505 -56 c4 -16 0 -31 -11 -43 -21 -23 -8 -25 17 -3 16 15 17 14 12 -5 -3
-12 -1 -21 6 -21 26 0 1 -172 -30 -204 -12 -13 -38 23 -36 50 1 20 3 20 22 8
23 -15 35 -10 34 15 0 12 -3 11 -9 -4 -7 -15 -9 -16 -9 -4 -1 9 -18 32 -39 50
-20 19 -35 33 -33 32 2 -1 13 9 24 23 28 36 13 80 -26 77 -23 -2 -27 2 -27 27
0 56 6 60 55 42 31 -11 46 -23 50 -40z m-1832 38 c-12 -5 -34 -5 -50 0 -24 7
-21 8 22 9 38 0 45 -2 28 -9z m-1003 -10 c-8 -5 -13 -10 -10 -11 3 0 13 -2 23
-4 9 -2 15 1 11 6 -3 5 2 9 10 9 25 0 26 -16 3 -48 -17 -23 -27 -28 -39 -21
-11 6 -18 4 -22 -6 -7 -19 -17 -19 -42 0 -18 14 -18 16 21 50 22 19 44 35 50
35 5 0 3 -5 -5 -10z m1308 -24 c3 -3 -15 -6 -39 -6 -28 0 -39 3 -31 9 14 9 60
7 70 -3z m-320 -3 c-10 -2 -28 -2 -40 0 -13 2 -5 4 17 4 22 1 32 -1 23 -4z
m2065 -14 c-4 -16 -11 -19 -29 -15 -26 7 -34 -11 -10 -20 11 -4 13 -12 5 -31
-13 -36 -11 -69 6 -83 13 -11 18 -10 30 6 13 17 14 17 15 2 0 -20 -38 -34 -53
-19 -6 6 -19 11 -29 11 -20 0 -23 30 -12 113 7 47 14 53 61 56 17 1 20 -3 16
-20z m-1770 -6 c-7 -2 -21 -2 -30 0 -10 3 -4 5 12 5 17 0 24 -2 18 -5z m3217
-29 c0 -2 -13 2 -30 11 -16 9 -30 18 -30 21 0 2 14 -2 30 -11 17 -9 30 -18 30
-21z m-1551 -30 c-1 -33 -5 -50 -10 -42 -7 13 -1 98 8 98 2 0 3 -25 2 -56z
m-2140 30 c13 -11 -8 -10 -34 2 l-30 13 30 -6 c17 -3 32 -7 34 -9z m118 10
c-3 -3 -12 -4 -19 -1 -8 3 -5 6 6 6 11 1 17 -2 13 -5z m520 -9 c0 -10 -10 -15
-29 -15 -16 0 -31 -6 -34 -15 -4 -8 -16 -14 -28 -14 -17 1 -17 2 -3 6 9 2 15
9 12 14 -4 5 -14 5 -26 -2 -12 -6 -23 -8 -27 -5 -3 3 1 6 9 7 8 0 6 4 -6 9
-16 7 -14 8 10 6 17 -1 36 -6 43 -10 7 -4 12 -3 12 3 0 5 12 11 28 14 15 2 3
4 -26 4 -29 1 -56 4 -59 7 -4 3 23 6 59 6 51 0 65 -3 65 -15z m100 9 c-3 -3
-12 -4 -19 -1 -8 3 -5 6 6 6 11 1 17 -2 13 -5z m76 -1 c-7 -2 -19 -2 -25 0 -7
3 -2 5 12 5 14 0 19 -2 13 -5z m-1757 -31 c-3 -5 -16 -12 -28 -15 -22 -6 -22
-6 2 13 25 19 37 20 26 2z m1171 12 c-3 -3 -12 -4 -19 -1 -8 3 -5 6 6 6 11 1
17 -2 13 -5z m56 -1 c-7 -2 -21 -2 -30 0 -10 3 -4 5 12 5 17 0 24 -2 18 -5z
m74 1 c-3 -3 -12 -4 -19 -1 -8 3 -5 6 6 6 11 1 17 -2 13 -5z m3403 -30 c0 -2
-9 0 -20 6 -11 6 -20 13 -20 16 0 2 9 0 20 -6 11 -6 20 -13 20 -16z m-3512 9
c-16 -2 -40 -2 -55 0 -16 2 -3 4 27 4 30 0 43 -2 28 -4z m175 0 c-7 -2 -19 -2
-25 0 -7 3 -2 5 12 5 14 0 19 -2 13 -5z m306 -13 l96 -8 -122 0 c-68 0 -123 3
-123 7 0 15 14 21 34 15 11 -4 63 -10 115 -14z m-2905 -2 c-5 -8 -1 -9 12 -5
18 7 18 6 -1 -9 -11 -8 -29 -20 -40 -25 l-20 -10 20 16 c11 9 21 20 21 25 2
17 4 20 10 20 3 0 2 -5 -2 -12z m3522 -3 c14 -13 10 -15 -33 -15 -26 0 -79 -2
-118 -5 l-70 -4 72 12 c39 7 75 15 79 20 12 12 55 8 70 -8z m-759 -21 c-3 -3
-12 -4 -19 -1 -8 3 -5 6 6 6 11 1 17 -2 13 -5z m98 -4 c27 -7 26 -8 -15 -9
-25 0 -52 4 -60 9 -11 7 -8 9 15 9 17 -1 44 -5 60 -9z m428 3 c-7 -2 -19 -2
-25 0 -7 3 -2 5 12 5 14 0 19 -2 13 -5z m-583 -19 c0 -2 -7 -4 -15 -4 -8 0
-15 4 -15 10 0 5 7 7 15 4 8 -4 15 -8 15 -10z m810 5 c-25 -4 -67 -7 -95 -7
l-50 1 50 7 c28 4 70 7 95 7 l45 0 -45 -8z m223 4 c-7 -2 -19 -2 -25 0 -7 3
-2 5 12 5 14 0 19 -2 13 -5z m50 0 c-7 -2 -19 -2 -25 0 -7 3 -2 5 12 5 14 0
19 -2 13 -5z m-1166 -9 c-3 -3 -12 -4 -19 -1 -8 3 -5 6 6 6 11 1 17 -2 13 -5z
m743 -4 c0 -5 -5 -10 -11 -10 -5 0 -7 5 -4 10 3 6 8 10 11 10 2 0 4 -4 4 -10z
m145 -9 c-6 -5 -41 -12 -80 -15 -79 -6 -70 0 20 13 33 5 62 9 65 10 2 0 0 -3
-5 -8z m-672 -8 c-18 -2 -48 -2 -65 0 -18 2 -4 4 32 4 36 0 50 -2 33 -4z m907
-12 c0 -19 -29 -51 -31 -35 -7 46 -5 54 12 54 12 0 19 -7 19 -19z m-1422 2
c-38 -2 -98 -2 -135 0 -38 2 -7 3 67 3 74 0 105 -1 68 -3z m145 0 c-7 -2 -19
-2 -25 0 -7 3 -2 5 12 5 14 0 19 -2 13 -5z m217 -3 c20 -6 21 -8 5 -8 -11 0
-33 4 -50 8 -27 7 -27 8 -5 8 14 0 36 -4 50 -8z m866 3 c-8 -8 -22 -11 -101
-17 l-60 -5 65 13 c77 16 106 19 96 9z m-3656 -8 c0 -2 -13 -11 -30 -20 -38
-19 -40 -11 -2 9 31 17 32 18 32 11z m1000 -27 c0 -36 -9 -33 -16 6 -2 14 0
26 6 26 5 0 10 -14 10 -32z m1985 18 c11 -2 -13 -4 -53 -5 -40 0 -71 2 -68 7
4 7 73 6 121 -2z m308 7 c-7 -2 -21 -2 -30 0 -10 3 -4 5 12 5 17 0 24 -2 18
-5z m-845 -20 c-42 -2 -114 -2 -160 0 -46 1 -11 3 77 3 88 0 125 -2 83 -3z
m135 0 c-7 -2 -19 -2 -25 0 -7 3 -2 5 12 5 14 0 19 -2 13 -5z m244 1 c-3 -3
-12 -4 -19 -1 -8 3 -5 6 6 6 11 1 17 -2 13 -5z m596 -1 c-13 -2 -35 -2 -50 0
-16 2 -5 4 22 4 28 0 40 -2 28 -4z m-718 -13 c-11 -5 -49 -8 -85 -8 l-65 2 70
6 c102 9 102 9 80 0z m75 0 c0 -5 -2 -10 -4 -10 -3 0 -8 5 -11 10 -3 6 -1 10
4 10 6 0 11 -4 11 -10z m480 -2 c-92 -8 -430 -7 -425 2 2 3 117 5 257 5 180 0
228 -2 168 -7z m-3330 -3 c0 -2 -10 -9 -22 -15 -22 -11 -22 -10 -4 4 21 17 26
19 26 11z m3833 -10 c-4 -15 -36 -12 -41 3 -3 9 3 13 19 10 13 -1 23 -7 22
-13z m267 11 c0 -2 -7 -7 -16 -10 -8 -3 -12 -2 -9 4 6 10 25 14 25 6z m-1647
-13 c-35 -2 -91 -2 -125 0 -35 2 -7 3 62 3 69 0 97 -1 63 -3z m950 0 c-7 -2
-19 -2 -25 0 -7 3 -2 5 12 5 14 0 19 -2 13 -5z m-590 -10 c-7 -2 -19 -2 -25 0
-7 3 -2 5 12 5 14 0 19 -2 13 -5z m180 0 c-13 -2 -33 -2 -45 0 -13 2 -3 4 22
4 25 0 35 -2 23 -4z m280 0 c-18 -2 -48 -2 -65 0 -18 2 -4 4 32 4 36 0 50 -2
33 -4z m1497 -3 c0 -15 -26 -23 -41 -14 -9 5 -7 10 7 15 27 11 34 10 34 -1z
m-4840 -15 c0 -2 -10 -9 -22 -15 -22 -11 -22 -10 -4 4 21 17 26 19 26 11z
m2387 -1 c-3 -3 -12 -4 -19 -1 -8 3 -5 6 6 6 11 1 17 -2 13 -5z m518 -14 c13
-6 5 -7 -25 -3 -25 3 -47 7 -49 9 -9 8 55 2 74 -6z m1050 -20 c3 -5 1 -10 -4
-10 -6 0 -11 5 -11 10 0 6 2 10 4 10 3 0 8 -4 11 -10z m-1082 -7 c-7 -2 -19
-2 -25 0 -7 3 -2 5 12 5 14 0 19 -2 13 -5z m-436 -9 c-3 -3 -12 -4 -19 -1 -8
3 -5 6 6 6 11 1 17 -2 13 -5z m886 -11 c-13 -2 -35 -2 -50 0 -16 2 -5 4 22 4
28 0 40 -2 28 -4z m-1040 -10 c-7 -2 -19 -2 -25 0 -7 3 -2 5 12 5 14 0 19 -2
13 -5z m850 0 c-29 -2 -77 -2 -105 0 -29 2 -6 3 52 3 58 0 81 -1 53 -3z m-756
-9 c-3 -3 -12 -4 -19 -1 -8 3 -5 6 6 6 11 1 17 -2 13 -5z m1026 -1 c-13 -2
-33 -2 -45 0 -13 2 -3 4 22 4 25 0 35 -2 23 -4z m-204 -19 c8 -7 -214 -2 -264
6 -29 4 15 5 105 2 85 -2 157 -6 159 -8z m99 9 c-16 -2 -40 -2 -55 0 -16 2 -3
4 27 4 30 0 43 -2 28 -4z m-985 -10 c-7 -2 -21 -2 -30 0 -10 3 -4 5 12 5 17 0
24 -2 18 -5z m127 -13 c9 -6 -6 -7 -45 -3 -33 3 -62 7 -64 9 -10 9 95 3 109
-6z m925 -1 c-68 -11 -472 -24 -463 -14 4 4 60 7 125 7 65 -1 159 3 208 7 50
4 110 8 135 8 l45 0 -50 -8z m-757 -6 c-10 -2 -28 -2 -40 0 -13 2 -5 4 17 4
22 1 32 -1 23 -4z m3325 0 c-7 -2 -21 -2 -30 0 -10 3 -4 5 12 5 17 0 24 -2 18
-5z m-2568 -25 c-16 -5 -142 -11 -280 -13 l-250 -3 238 8 c132 5 241 11 245
14 3 3 21 6 41 5 l36 -1 -30 -10z m-932 -5 c-13 -2 -33 -2 -45 0 -13 2 -3 4
22 4 25 0 35 -2 23 -4z m3164 1 c-3 -3 -12 -4 -19 -1 -8 3 -5 6 6 6 11 1 17
-2 13 -5z m-2960 -30 c-3 -3 -12 -4 -19 -1 -8 3 -5 6 6 6 11 1 17 -2 13 -5z
m60 0 c-3 -3 -12 -4 -19 -1 -8 3 -5 6 6 6 11 1 17 -2 13 -5z m518 -14 c-72
-12 -105 -11 -105 0 0 6 32 9 78 9 75 -2 75 -2 27 -9z m-527 -7 c-10 -2 -28
-2 -40 0 -13 2 -5 4 17 4 22 1 32 -1 23 -4z m320 0 c-32 -2 -84 -2 -115 0 -32
2 -6 3 57 3 63 0 89 -1 58 -3z m2312 3 c0 -2 -8 -10 -17 -17 -16 -13 -17 -12
-4 4 13 16 21 21 21 13z m-2777 -13 c-7 -2 -21 -2 -30 0 -10 3 -4 5 12 5 17 0
24 -2 18 -5z m0 -30 c-18 -2 -48 -2 -65 0 -18 2 -4 4 32 4 36 0 50 -2 33 -4z
m-110 -90 c-13 -2 -33 -2 -45 0 -13 2 -3 4 22 4 25 0 35 -2 23 -4z m910 0 c-7
-2 -21 -2 -30 0 -10 3 -4 5 12 5 17 0 24 -2 18 -5z m2360 -10 c-7 -2 -19 -2
-25 0 -7 3 -2 5 12 5 14 0 19 -2 13 -5z m-4807 -45 c5 -8 0 -9 -14 -6 -15 4
-25 0 -31 -10 -5 -9 -13 -13 -17 -9 -8 8 24 36 43 37 6 0 15 -5 19 -12z m2327
5 c-7 -2 -19 -2 -25 0 -7 3 -2 5 12 5 14 0 19 -2 13 -5z m-110 -10 c-7 -2 -21
-2 -30 0 -10 3 -4 5 12 5 17 0 24 -2 18 -5z m-54 -7 c-2 -2 -24 -6 -48 -9 -29
-4 -40 -2 -30 4 13 8 88 14 78 5z m-2249 -26 c0 -5 -4 -10 -10 -10 -5 0 -10 5
-10 10 0 6 5 10 10 10 6 0 10 -4 10 -10z m2335 -11 c-59 -9 -197 -20 -175 -13
30 9 136 22 180 21 l45 0 -50 -8z m-212 -26 c-7 -2 -21 -2 -30 0 -10 3 -4 5
12 5 17 0 24 -2 18 -5z m74 -29 c-3 -3 -12 -4 -19 -1 -8 3 -5 6 6 6 11 1 17
-2 13 -5z m290 -250 c-3 -3 -12 -4 -19 -1 -8 3 -5 6 6 6 11 1 17 -2 13 -5z
m10 -30 c-3 -3 -12 -4 -19 -1 -8 3 -5 6 6 6 11 1 17 -2 13 -5z m503 -260 c0
-2 -11 -2 -25 1 -14 3 -36 7 -50 10 -14 3 -23 10 -20 15 5 8 95 -16 95 -26z
m-823 -180 c-3 -3 -12 -4 -19 -1 -8 3 -5 6 6 6 11 1 17 -2 13 -5z m-1280 -36
c-3 -8 -6 -5 -6 6 -1 11 2 17 5 13 3 -3 4 -12 1 -19z m266 -35 c-7 -2 -19 -2
-25 0 -7 3 -2 5 12 5 14 0 19 -2 13 -5z"/>
<path d="M3035 3040 c-4 -6 -11 -7 -17 -4 -12 8 -28 -14 -22 -31 6 -14 75 -17
91 -3 9 7 10 16 2 29 -10 20 -44 26 -54 9z"/>
<path d="M3326 2962 c-7 -12 7 -27 27 -28 10 -1 17 5 17 17 0 19 -34 27 -44
11z"/>
<path d="M3650 2200 c-8 -5 -12 -11 -9 -14 2 -3 11 -1 19 4 8 5 12 11 9 14 -2
3 -11 1 -19 -4z"/>
<path d="M3500 2106 c0 -2 7 -7 16 -10 8 -3 12 -2 9 4 -6 10 -25 14 -25 6z"/>
<path d="M3468 2082 c-16 -2 -28 -8 -28 -13 0 -8 67 -3 78 6 7 6 -25 10 -50 7z"/>
<path d="M3437 2023 c-10 -10 -8 -23 4 -23 5 0 8 4 5 9 -4 5 0 12 6 14 7 3 8
6 2 6 -6 1 -14 -2 -17 -6z"/>
<path d="M3395 2010 c-3 -5 -1 -10 4 -10 6 0 11 5 11 10 0 6 -2 10 -4 10 -3 0
-8 -4 -11 -10z"/>
<path d="M3308 1918 c8 -8 17 -8 34 0 22 10 21 11 -11 11 -27 1 -32 -2 -23
-11z"/>
<path d="M2898 1913 c7 -3 16 -2 19 1 4 3 -2 6 -13 5 -11 0 -14 -3 -6 -6z"/>
<path d="M2835 1900 c3 -5 18 -10 33 -9 24 0 25 1 7 9 -28 12 -47 12 -40 0z"/>
<path d="M3298 1883 c12 -2 32 -2 45 0 12 2 2 4 -23 4 -25 0 -35 -2 -22 -4z"/>
<path d="M2810 1870 c-12 -8 -9 -10 13 -10 16 0 26 4 22 10 -8 12 -16 12 -35
0z"/>
<path d="M2968 1853 c7 -3 16 -2 19 1 4 3 -2 6 -13 5 -11 0 -14 -3 -6 -6z"/>
<path d="M2758 1843 c7 -3 16 -2 19 1 4 3 -2 6 -13 5 -11 0 -14 -3 -6 -6z"/>
<path d="M2818 1843 c7 -3 16 -2 19 1 4 3 -2 6 -13 5 -11 0 -14 -3 -6 -6z"/>
<path d="M2899 1837 c5 -5 19 -7 32 -5 20 3 19 5 -9 9 -20 3 -29 2 -23 -4z"/>
<path d="M3020 1836 c0 -2 7 -7 16 -10 8 -3 12 -2 9 4 -6 10 -25 14 -25 6z"/>
<path d="M2768 1823 c7 -3 16 -2 19 1 4 3 -2 6 -13 5 -11 0 -14 -3 -6 -6z"/>
<path d="M3028 1793 c7 -3 16 -2 19 1 4 3 -2 6 -13 5 -11 0 -14 -3 -6 -6z"/>
<path d="M3040 1689 c0 -5 5 -7 10 -4 6 3 10 8 10 11 0 2 -4 4 -10 4 -5 0 -10
-5 -10 -11z"/>
<path d="M3090 1696 c0 -2 7 -7 16 -10 8 -3 12 -2 9 4 -6 10 -25 14 -25 6z"/>
<path d="M3090 1636 c0 -2 7 -7 16 -10 8 -3 12 -2 9 4 -6 10 -25 14 -25 6z"/>
<path d="M4561 1864 c0 -11 3 -14 6 -6 3 7 2 16 -1 19 -3 4 -6 -2 -5 -13z"/>
<path d="M588 1694 c-16 -8 -28 -17 -28 -19 0 -10 16 -4 40 15 30 23 25 25
-12 4z"/>
<path d="M2425 1590 c3 -5 8 -10 11 -10 2 0 4 5 4 10 0 6 -5 10 -11 10 -5 0
-7 -4 -4 -10z"/>
<path d="M3868 1643 c12 -2 30 -2 40 0 9 3 -1 5 -23 4 -22 0 -30 -2 -17 -4z"/>
<path d="M3868 1613 c7 -3 16 -2 19 1 4 3 -2 6 -13 5 -11 0 -14 -3 -6 -6z"/>
<path d="M3900 1596 c0 -9 7 -12 20 -9 11 3 20 9 20 14 0 5 -9 9 -20 9 -11 0
-20 -6 -20 -14z"/>
<path d="M3818 1593 c7 -3 16 -2 19 1 4 3 -2 6 -13 5 -11 0 -14 -3 -6 -6z"/>
<path d="M3763 1523 c9 -2 25 -2 35 0 9 3 1 5 -18 5 -19 0 -27 -2 -17 -5z"/>
<path d="M35 2130 c3 -5 8 -10 11 -10 2 0 4 5 4 10 0 6 -5 10 -11 10 -5 0 -7
-4 -4 -10z"/>
</g>
</svg>
